<?xml version="1.0" encoding="utf-8"?>
<!-- Generator: Adobe Illustrator 19.2.0, SVG Export Plug-In . SVG Version: 6.00 Build 0)  -->
<svg version="1.1" id="图层_1" xmlns="http://www.w3.org/2000/svg" xmlns:xlink="http://www.w3.org/1999/xlink" x="0px" y="0px"
	 viewBox="0 0 32 32" style="enable-background:new 0 0 32 32;" xml:space="preserve">
<title></title>
<g id="Layer_2">
	<path d="M17,4V3c0-0.6-0.4-1-1-1s-1,0.4-1,1v1c0,0.6,0.4,1,1,1S17,4.6,17,4z"/>
	<path d="M7.5,6.1c-0.4-0.4-1-0.3-1.4,0.1c-0.3,0.4-0.3,0.9,0,1.3l0.7,0.7c0.4,0.4,1.1,0.3,1.4-0.1c0.3-0.4,0.3-0.9,0-1.3L7.5,6.1z"
		/>
	<path d="M4,17c0.6,0,1-0.4,1-1s-0.4-1-1-1H3c-0.6,0-1,0.4-1,1s0.4,1,1,1H4z"/>
	<path d="M6.1,25.9c0.4,0.4,1,0.4,1.4,0l0.7-0.7c0.4-0.4,0.3-1.1-0.1-1.4c-0.4-0.3-0.9-0.3-1.3,0l-0.7,0.7C5.9,24.8,6,25.4,6.1,25.9
		z"/>
	<path d="M25.2,23.8c-0.4-0.4-1.1-0.3-1.4,0.1s-0.3,0.9,0,1.3l0.7,0.7c0.4,0.4,1.1,0.3,1.4-0.1s0.3-0.9,0-1.3L25.2,23.8z"/>
	<path d="M29,15h-1c-0.6,0-1,0.4-1,1s0.4,1,1,1h1c0.6,0,1-0.4,1-1S29.6,15,29,15z"/>
	<path d="M25.9,6.1c-0.4-0.4-1-0.4-1.4,0l-0.7,0.7c-0.4,0.4-0.5,1-0.1,1.4c0.4,0.4,1,0.5,1.4,0.1l0.1-0.1l0.7-0.7
		C26.3,7.1,26.3,6.5,25.9,6.1z"/>
	<path d="M7,16c0,3,1.5,5.8,4,7.5V29c0,0.6,0.4,1,1,1h8c0.6,0,1-0.4,1-1v-5.5c4.1-2.8,5.2-8.4,2.5-12.5S15.1,5.7,11,8.5
		C8.5,10.2,7,13,7,16z M13,28v-2h6v2H13z M16,9c3.9,0,7,3.1,7,7c0,2.5-1.3,4.8-3.5,6.1C19.2,22.3,19,22.6,19,23v1h-2v-6h2
		c0.6,0,1-0.4,1-1s-0.4-1-1-1h-6c-0.6,0-1,0.4-1,1s0.4,1,1,1h2v6h-2v-1.1c0-0.4-0.2-0.7-0.5-0.9C9.2,20.1,8,15.8,10,12.5
		C11.2,10.3,13.5,9,16,9z"/>
</g>
</svg>
