<?xml version="1.0" encoding="iso-8859-1"?>
<!-- Generator: Adobe Illustrator 16.0.0, SVG Export Plug-In . SVG Version: 6.00 Build 0)  -->
<!DOCTYPE svg PUBLIC "-//W3C//DTD SVG 1.1//EN" "http://www.w3.org/Graphics/SVG/1.1/DTD/svg11.dtd">
<svg version="1.1" id="Capa_1" xmlns="http://www.w3.org/2000/svg" xmlns:xlink="http://www.w3.org/1999/xlink" x="0px" y="0px"
	 width="578px" height="578px" viewBox="0 0 578 578" style="enable-background:new 0 0 578 578;" xml:space="preserve">
<g>
	<path d="M91.8,285.6c0-33.803,27.397-61.2,61.2-61.2s61.2,27.397,61.2,61.2c0,33.802-27.397,61.201-61.2,61.201
		S91.8,319.402,91.8,285.6z M425,346.801c33.803,0,61.2-27.398,61.2-61.201c0-33.803-27.397-61.2-61.2-61.2s-61.2,27.397-61.2,61.2
		C363.8,319.402,391.197,346.801,425,346.801z M452.2,367.199h-54.4c-37.557,0-68,30.445-68,68v38.652
		c0,4.305-2.04,8.357-5.494,10.92l-32.545,22.047c-2.366,1.604-5.487,1.557-7.799-0.123l-30.26-21.924
		c-3.461-2.57-5.501-6.615-5.501-10.92v-38.652c0-37.555-30.444-68-68-68h-54.4c-37.556,0-68,30.445-68,68v88.605
		c0,9.275,7.521,16.795,16.796,16.795h0.408c9.275,0,16.796-7.52,16.796-16.795V578h122.4v-78.234l34,23.902l25.738,17.115
		c9.125,6.066,20.999,6.066,30.125,0l25.737-17.115l34-23.902V578h122.4v-54.195c0,9.275,7.521,16.795,16.796,16.795h0.408
		c9.275,0,16.796-7.52,16.796-16.795v-88.605C520.2,397.645,489.757,367.199,452.2,367.199z M425,95.2
		c0,52.578-63.934,95.2-142.8,95.2c-8.432,0-16.653-0.584-24.684-1.516C237.205,210.787,197.2,214.2,197.2,214.2
		c6.942-12.777,11.478-25.105,13.001-36.883C167.892,160.793,139.4,130.248,139.4,95.2C139.4,42.623,203.333,0,282.2,0
		C361.066,0,425,42.623,425,95.2z M244.8,95.2c0-11.268-9.132-20.4-20.4-20.4S204,83.933,204,95.2s9.132,20.4,20.4,20.4
		S244.8,106.468,244.8,95.2z M306,95.2c0-11.268-9.133-20.4-20.4-20.4c-11.268,0-20.4,9.132-20.4,20.4s9.132,20.4,20.4,20.4
		C296.867,115.6,306,106.468,306,95.2z M367.2,95.2c0-11.268-9.133-20.4-20.4-20.4S326.4,83.933,326.4,95.2s9.132,20.4,20.399,20.4
		S367.2,106.468,367.2,95.2z"/>
</g>
<g>
</g>
<g>
</g>
<g>
</g>
<g>
</g>
<g>
</g>
<g>
</g>
<g>
</g>
<g>
</g>
<g>
</g>
<g>
</g>
<g>
</g>
<g>
</g>
<g>
</g>
<g>
</g>
<g>
</g>
</svg>
