<?xml version="1.0" encoding="iso-8859-1"?>
<!-- Generator: Adobe Illustrator 21.0.0, SVG Export Plug-In . SVG Version: 6.00 Build 0)  -->
<svg xmlns="http://www.w3.org/2000/svg" xmlns:xlink="http://www.w3.org/1999/xlink" version="1.1" id="Capa_1" x="0px" y="0px" viewBox="0 0 512.008 512.008" style="enable-background:new 0 0 512.008 512.008;" xml:space="preserve" width="512" height="512">
<g>
	<path d="M512,50.902c0-8.284-6.716-15-15-15H15c-8.284,0-15,6.716-15,15V389.1c0,8.284,6.716,15,15,15h0.008h150.999v42.007h-25   c-8.284,0-15,6.716-15,15c0,8.284,6.716,15,15,15h230c8.284,0,15-6.716,15-15c0-8.284-6.716-15-15-15h-25V404.1H497h0.008   c8.284,0,15-6.716,15-15L512,50.902z M482,65.902V293.04H30V65.902H482z M316.007,446.107h-120V404.1h120V446.107z M452.008,374.1   v-6.06c0-8.284-6.716-15-15-15c-8.284,0-15,6.716-15,15v6.06h-30v-6.06c0-8.284-6.716-15-15-15c-8.284,0-15,6.716-15,15v6.06h-30   v-6.06c0-8.284-6.716-15-15-15c-8.284,0-15,6.716-15,15v6.06h-272v-51.06H482v51.06H452.008z"/>
	<path d="M108.811,239.105h50.561c4.8,0,7.2-5.44,7.2-10.88c0-5.44-2.4-10.881-7.2-10.881h-36.481v-87.682   c0-5.28-6.24-7.521-12.48-7.521c-6.24,0-12.48,2.24-12.48,7.521v101.762C97.93,236.545,103.37,239.105,108.811,239.105z"/>
	<path d="M197.129,239.105c6.24,0,12.48-2.56,12.48-7.681V129.662c0-5.28-6.24-7.521-12.48-7.521c-6.24,0-12.48,2.24-12.48,7.521   v101.762C184.648,236.545,190.889,239.105,197.129,239.105z"/>
	<path d="M257.128,231.744c1.76,5.601,8.96,8.32,16.32,8.32c7.36,0,14.56-2.72,16.32-8.32l29.761-97.601   c0.16-0.641,0.32-1.28,0.32-1.761c0-5.92-9.12-10.24-16-10.24c-4,0-7.2,1.28-8.16,4.641l-22.24,82.082l-22.4-82.082   c-0.96-3.36-4.16-4.641-8.16-4.641c-6.88,0-16,4.32-16,10.24c0,0.48,0.16,1.12,0.32,1.761L257.128,231.744z"/>
	<path d="M348.006,239.105h56.961c5.28,0,7.52-5.601,7.52-10.721c0-5.92-2.72-11.04-7.52-11.04h-42.881v-27.2h24.001   c5.28,0,7.52-5.12,7.52-9.44c0-5.12-2.72-9.76-7.52-9.76h-24.001v-27.041h42.881c4.8,0,7.52-5.12,7.52-11.04   c0-5.12-2.24-10.721-7.52-10.721h-56.961c-5.44,0-10.88,2.561-10.88,7.681v101.602   C337.126,236.545,342.565,239.105,348.006,239.105z"/>
</g>















</svg>
