<svg height="464pt" viewBox="0 0 464 464" width="464pt" xmlns="http://www.w3.org/2000/svg"><path d="m32 464h40v-184h16v184h40v-216h-96zm0 0"/><path d="m144 272h16v-127.015625c0-11.03125-7.480469-20.609375-18.175781-23.289063l-15.0625-3.757812-9.417969 37.6875-37.34375-18.671875-37.34375 18.671875-9.417969-37.6875-15.0625 3.757812c-10.695312 2.679688-18.175781 12.257813-18.175781 23.289063v127.015625h16v-112h16v72h96v-72h16zm0 0"/><path d="m48.761719 114.054688 4.582031 18.328124 13.152344-6.574218-12.945313-12.945313zm0 0"/><path d="m80 80c17.648438 0 32-14.351562 32-32v-16c0-17.648438-14.351562-32-32-32s-32 14.351562-32 32v16c0 17.648438 14.351562 32 32 32zm0 0"/><path d="m96 100.6875v-7.488281c-5.015625 1.777343-10.382812 2.800781-16 2.800781s-10.984375-1.023438-16-2.800781v7.488281l16 16zm0 0"/><path d="m111.238281 114.054688-4.789062-1.191407-12.945313 12.945313 13.152344 6.574218zm0 0"/><path d="m379.3125 272 69.152344 69.152344c2.542968-6.0625 4.800781-12.28125 6.75-18.625l-50.527344-50.527344zm0 0"/><path d="m331.3125 272 100.542969 100.542969c3.359375-5.175781 6.488281-10.519531 9.367187-16.007813l-84.535156-84.535156zm0 0"/><path d="m283.3125 272 127.566406 127.566406c4.074219-4.40625 7.945313-9 11.609375-13.757812l-113.800781-113.808594zm0 0"/><path d="m459.824219 304.511719c2.183593-10.566407 3.582031-21.414063 4.023437-32.511719h-36.527344zm0 0"/><path d="m272 463.839844c11.097656-.441406 21.945312-1.839844 32.511719-4.023438l-32.511719-32.503906zm0 0"/><path d="m272 308.6875 113.808594 113.808594c4.757812-3.664063 9.351562-7.535156 13.757812-11.609375l-127.566406-127.574219zm0 0"/><path d="m272 404.6875 50.527344 50.527344c6.351562-1.941406 12.5625-4.199219 18.625-6.75l-69.152344-69.152344zm0 0"/><path d="m272 356.6875 84.535156 84.535156c5.496094-2.878906 10.832032-6.007812 16.007813-9.367187l-100.542969-100.542969zm0 0"/><path d="m416 0v16h20.6875l-52.6875 52.6875-56-56-53.71875 53.71875c-3.128906-1.503906-6.585938-2.40625-10.28125-2.40625-3.992188 0-7.695312 1.070312-11.007812 2.800781l-46.648438-34.207031c1.03125-2.671875 1.65625-5.554688 1.65625-8.59375 0-13.230469-10.769531-24-24-24s-24 10.769531-24 24 10.769531 24 24 24c4.328125 0 8.335938-1.238281 11.847656-3.257812l46.105469 33.808593c-1.25 2.90625-1.953125 6.097657-1.953125 9.449219 0 13.230469 10.769531 24 24 24s24-10.769531 24-24c0-3.695312-.902344-7.152344-2.40625-10.28125l42.40625-42.40625 56 56 64-64v20.6875h16v-48zm-240 24c0-4.414062 3.585938-8 8-8s8 3.585938 8 8-3.585938 8-8 8-8-3.585938-8-8zm88 72c-4.414062 0-8-3.585938-8-8s3.585938-8 8-8 8 3.585938 8 8-3.585938 8-8 8zm0 0"/><path d="m226.175781 100.441406c-19.886719 4.582032-38.816406 12.71875-55.832031 24.183594 3.566406 6.015625 5.65625 12.96875 5.65625 20.359375v143.015625h-32v93.390625c29.976562 30.671875 69.367188 48.234375 112 50.210937v-304.410156c-14.128906-2.863281-25.382812-13.253906-29.824219-26.75zm0 0"/><path d="m301.824219 100.464844c-4.449219 13.480468-15.695313 23.863281-29.824219 26.726562v128.808594h159.625c-3.527344-76.191406-56.808594-138.976562-129.800781-155.535156zm2.175781 107.535156h-16v-16h16zm32 0h-16v-16h16zm32 0h-16v-16h16zm16 0v-16h16v16zm0 0"/></svg>